#!OML:ASF H:\Terrain\Patient Classification 1\Walking\steve\steve.ASF
:FULLY-SPECIFIED
:DEGREES
281
root 10.5628 16.8073 31.2762 7.91842 -5.80808 -6.06385
lowerback -1.50636 4.15356 7.68543
upperback -2.80128 5.53788 1.27158
thorax -1.46368 2.64245 -2.92546
lowerneck -10.5335 -1.3161 -3.82256
upperneck 16.1613 -1.84456 4.13784
head 6.73207 -0.770889 1.7993
rclavicle -1.84311e-014 1.13307e-014
rhumerus -13.7219 4.80835 -84.0407
rradius 53.6684
rwrist -12.5308
rhand -21.7915 -38.903
rfingers 7.12502
rthumb 4.6101 -68.8328
lclavicle -1.84311e-014 1.13307e-014
lhumerus -54.5044 14.8197 72.9127
lradius 6.74065
lwrist -15.0192
lhand -24.2444 -14.4936
lfingers 7.12502
lthumb 2.24134 15.4744
rfemur 0.97059 -5.43572 27.9169
rtibia 21.0687
rfoot -7.95334 25.7496
rtoes 11.2808
lfemur -37.8498 1.95082 -12.081
ltibia 27.6742
lfoot -17.297 5.93013
ltoes -4.88677
282
root 10.5845 16.7978 31.5288 8.16824 -6.32371 -6.12923
lowerback -2.81515 4.29667 7.74583
upperback -1.87247 5.54429 1.26103
thorax 0.240107 2.72646 -2.81781
lowerneck -11.6149 -1.44602 -4.28647
upperneck 15.5838 -1.97084 4.63254
head 6.75083 -0.807183 2.01792
rclavicle 1.97604e-014 -5.1684e-015
rhumerus -11.1552 5.69807 -83.4286
rradius 54.8966
rwrist -12.354
rhand -21.1462 -34.6395
rfingers 7.12502
rthumb 5.23322 -64.5549
lclavicle 1.97604e-014 -5.1684e-015
lhumerus -54.6055 15.1852 72.906
lradius 6.73223
lwrist -13.4897
lhand -24.3946 -14.1529
lfingers 7.12502
lthumb 2.09623 15.8165
rfemur 2.39639 -5.31884 27.6445
rtibia 19.4679
rfoot -7.23955 25.6965
rtoes 8.06262
lfemur -37.9198 0.7442 -11.1757
ltibia 24.4941
lfoot -18.3986 7.8204
ltoes -6.52368
283
root 10.6003 16.7797 31.7773 8.41349 -6.98285 -6.11566
lowerback -1.98438 4.45811 7.66017
upperback -2.5942 5.88203 1.05063
thorax -0.923839 2.83754 -3.07678
lowerneck -10.7702 -1.44336 -4.62583
upperneck 15.312 -2.04859 5.33383
head 6.52972 -0.818023 2.29367
rclavicle -1.10229e-013 -3.13086e-014
rhumerus -11.408 6.54666 -83.3513
rradius 56.7515
rwrist -12.3297
rhand -25.7072 -36.1827
rfingers 7.12502
rthumb 0.828587 -66.1608
lclavicle -1.10229e-013 -3.13086e-014
lhumerus -57.0852 14.3704 72.04
lradius 6.97135
lwrist -11.6245
lhand -24.5699 -13.9824
lfingers 7.12502
lthumb 1.92692 15.9887
rfemur 3.90641 -4.51164 27.3477
rtibia 17.8157
rfoot -6.26932 25.2378
rtoes 6.21518
lfemur -38.0744 0.244006 -10.7032
ltibia 22.0122
lfoot -19.4608 10.3568
ltoes -15.8674
284
root 10.6191 16.7648 32.0467 8.77245 -7.41965 -6.4455
lowerback -2.71865 4.62995 7.91722
upperback -2.35655 6.02037 1.09548
thorax -0.2321 2.93374 -3.08811
lowerneck -11.6176 -1.49737 -4.25954
upperneck 15.6344 -2.04262 4.60168
head 6.77043 -0.842786 1.99708
rclavicle 4.03781e-017 4.04527e-014
rhumerus -10.0637 7.2653 -82.8377
rradius 57.7838
rwrist -12.6861
rhand -34.5718 -30.092
rfingers 7.12502
rthumb -7.73151 -59.9307
lclavicle 4.03781e-017 4.04527e-014
lhumerus -58.0043 14.2408 71.8214
lradius 6.88006
lwrist -9.66687
lhand -25.0413 -13.8146
lfingers 7.12502
lthumb 1.47172 16.16
rfemur 5.22863 -3.86152 27.3591
rtibia 16.4853
rfoot -4.55764 24.9148
rtoes 8.83172
lfemur -38.4821 -0.0110004 -10.024
ltibia 20.0632
lfoot -20.0659 12.3035
ltoes -21.4703
285
root 10.642 16.7452 32.3167 9.05778 -7.64827 -6.86355
lowerback -2.56589 4.6908 8.16611
upperback -2.72251 6.13369 1.23287
thorax -0.676459 2.96223 -3.11001
lowerneck -11.1144 -1.40768 -4.3415
upperneck 15.2962 -1.9236 4.6637
head 6.56993 -0.792045 2.04059
rclavicle -3.49613e-014 -7.45443e-015
rhumerus -10.2908 7.73922 -82.4809
rradius 59.7286
rwrist -12.5009
rhand -38.6473 -22.7202
rfingers 7.12502
rthumb -11.6636 -52.3756
lclavicle -3.49613e-014 -7.45443e-015
lhumerus -59.9934 13.8214 71.4236
lradius 7.20926
lwrist -7.72417
lhand -24.4056 -13.0896
lfingers 7.12502
lthumb 2.08565 16.8799
rfemur 6.4692 -3.51853 27.5107
rtibia 15.4312
rfoot -3.5997 24.5816
rtoes 8.06753
lfemur -38.933 0.230123 -9.63185
ltibia 18.4815
lfoot -19.082 11.4378
ltoes -16.4558
286
root 10.6592 16.7186 32.5645 9.16373 -8.03118 -7.057
lowerback -3.19913 4.86878 8.28305
upperback -2.12309 6.26544 1.24763
thorax 0.325444 3.07854 -3.06041
lowerneck -11.9696 -1.3715 -4.4237
upperneck 15.1793 -1.85191 4.83192
head 6.68033 -0.737949 2.11256
rclavicle -3.48556e-014 -2.68359e-015
rhumerus -9.1536 8.13933 -81.7871
rradius 61.6375
rwrist -11.8932
rhand -37.2716 -22.7888
rfingers 7.12502
rthumb -10.3367 -52.5148
lclavicle -3.48556e-014 -2.68359e-015
lhumerus -60.2153 13.8039 71.4759
lradius 7.36108
lwrist -6.03833
lhand -23.6009 -12.3959
lfingers 7.12502
lthumb 2.86284 17.5647
rfemur 7.66916 -2.58491 27.5905
rtibia 14.4622
rfoot -2.63442 23.7002
rtoes 6.84275
lfemur -39.3525 0.975075 -9.77082
ltibia 17.3338
lfoot -18.822 10.6051
ltoes -15.3279
